{"title":"Ice Age 2012 (2011) DVDrip English Pyros","uid":6574412,"size":1473727052,"categoryP":"video","categoryS":"movies","magnet":"?xt=urn:btih:92a931739084c87ee32dbefa26b63be20ed2a5cc&amp;dn=Ice+Age+2012+%282011%29+DVDrip+English+Pyros&amp;tr=udp%3A%2F%2Ftracker.openbittorrent.com%3A80&amp;tr=udp%3A%2F%2Fopen.demonii.com%3A1337&amp;tr=udp%3A%2F%2Ftracker.coppersurfer.tk%3A6969&amp;tr=udp%3A%2F%2Fexodus.desync.com%3A6969","seeders":0,"leechers":1,"uploader":"pyropyros","files":-1,"time":1312129527,"description":"[IMG]http://img823.imageshack.us/img823/2607/mv5bndc2odg2ndm4nf5bml5.jpg[/IMG]\n\n\nIn IJsland vindt een enorme vulkaanuitbarsting plaats. Het gevolg daarvan is dat een gigantische gletsjer met zeer grote snelheid naar het noorden van de Verenigde Staten drijft. Een gezin zet alles op alles om te ontsnappen aan de grote ramp die er zal plaatsvinden. Een nieuwe ijstijd lijkt op komst.\n\nIceland is a huge volcanic eruption. The result is that a giant glacier with very high speed to the north of the United States drives. A family does everything to escape the great disaster that will occur. A new ice age seems to come.\n\n\n------------------ Dutch Friends ------------------\nYou can find my Friends at: http://www.Film-Test.nl\n------ They got my dutchs subs ---- and more ------\n\nGeneral\nComplete name : C:\\\\\\\\Users\\\\\\\\larrgoo\\\\\\\\Documents\\\\\\\\ice age 2012\\\\\\\\ice age 2012.avi\nFormat : AVI\nFormat/Info : Audio Video Interleave\nFile size : 1.37 GiB\nDuration : 1h 31mn\nOverall bit rate : 2 146 Kbps\n\nVideo\nID : 0\nFormat : MPEG-4 Visual\nFormat profile : Simple@L3\nFormat settings, BVOP : No\nFormat settings, QPel : No\nFormat settings, GMC : No warppoints\nFormat settings, Matrix : Default (H.263)\nCodec ID : XVID\nCodec ID/Hint : XviD\nDuration : 1h 31mn\nBit rate : 1 687 Kbps\nWidth : 704 pixels\nHeight : 400 pixels\nDisplay aspect ratio : 16:9\nFrame rate : 23.976 fps\nColor space : YUV\nChroma subsampling : 4:2:0\nBit depth : 8 bits\nScan type : Progressive\nCompression mode : Lossy\nBits/(Pixel*Frame) : 0.250\nStream size : 1.08 GiB (79%)\nWriting library : XviD 1.1.2 (UTC 2006-11-01)\n\nAudio\nID : 1\nFormat : AC-3\nFormat/Info : Audio Coding 3\nMode extension : CM (complete main)\nCodec ID : 2000\nDuration : 1h 31mn\nBit rate mode : Constant\nBit rate : 448 Kbps\nChannel(s) : 6 channels\nChannel positions : Front: L C R, Side: L R, LFE\nSampling rate : 48.0 KHz\nBit depth : 16 bits\nCompression mode : Lossy\nStream size : 293 MiB (21%)\nAlignment : Aligned on interleaves\nInterleave, duration : 32 ms (0.77 video frame)\nInterleave, preload duration : 640 ms","torrent":{"xt":"urn:btih:92a931739084c87ee32dbefa26b63be20ed2a5cc","amp;dn":"Ice+Age+2012+%282011%29+DVDrip+English+Pyros","amp;tr":["udp%3A%2F%2Ftracker.openbittorrent.com%3A80","udp%3A%2F%2Fopen.demonii.com%3A1337","udp%3A%2F%2Ftracker.coppersurfer.tk%3A6969","udp%3A%2F%2Fexodus.desync.com%3A6969"],"infoHash":"92a931739084c87ee32dbefa26b63be20ed2a5cc","infoHashBuffer":{"type":"Buffer","data":[146,169,49,115,144,132,200,126,227,45,190,250,38,182,59,226,14,210,165,204]},"announce":[],"urlList":[]}}